<?xml version="1.0" encoding="UTF-8"?>
<svg xmlns="http://www.w3.org/2000/svg" width="50px" height="70px"  viewBox="0 0 222.86 376.26">
    <defs><style>.cls-1{fill:#231f20;}</style></defs><g id="Layer_2" ><g id="De_La_Cross_Logo_Larger_"><path id="L-Cross" class="cls-1" d="M222.86,186.48v26L2.46,254.07l2.27-87.4L7.89,44.82c5.1-1.71,14.61-2.69,20.37-3.16,2.87-.23,4.81-.33,4.81-.33l-2.54,94.55-.71,26.05L28.17,223.3l102.9-19.48v-61l23.74-4.48,4.31-.71v60.88Z"/><g id="D-Curve"><path class="cls-1" d="M.71,2.51,0,29.94c81.05-14,105,33.83,102.45,76.76C99.59,154.43,56.81,180.11,47.24,185l-.71,27.55c12.84-5.31,85.58-38.35,85.58-110.61C132.11,27.55,78-10.48.71,2.51Z"/></g><polygon id="T-Base" class="cls-1" points="159.12 239.55 159.12 370.97 131.07 376.26 131.07 244.84 159.12 239.55"/></g></g></svg>