<svg xmlns="http://www.w3.org/2000/svg" width="100px" height="100px" viewBox="0 0 3683.84 4081">
    <defs><style>.cls-1,.cls-2,.cls-3{fill:#231f20;}.cls-2{font-size:361.77px;font-family:ArialNarrow, Arial Narrow;}.cls-3{font-size:374.53px;font-family:OpenSans-Extrabold, Open Sans;font-weight:800;}.cls-4{fill:none;stroke:#231f20;stroke-miterlimit:10;stroke-width:5px;}</style></defs><g id="Layer_2" ><g id="De_La_Cross_Logo_Larger_" ><path id="L-Cross" class="cls-1" d="M2274.5,2052.11v120.22l-1018.19,192,10.48-403.78,14.6-562.91c23.55-7.9,67.49-12.44,94.1-14.6,13.28-1,22.22-1.54,22.22-1.54L1386,1818.36l-3.28,120.37-7.62,283.48,475.39-90V1850.5l109.68-20.68,19.91-3.28v281.25Z"/><g id="D-Curve"><path class="cls-1" d="M1248.21,1202.21l-3.28,126.73c374.44-64.69,485.16,156.27,473.29,354.6-13.21,220.54-210.83,339.16-255,361.93l-3.29,127.28c59.31-24.52,395.4-177.16,395.4-511C1855.28,1317.9,1605.4,1142.21,1248.21,1202.21Z"/></g><polygon id="T-Base" class="cls-1" points="1980.05 2297.31 1980.05 2904.45 1850.46 2928.9 1850.46 2321.76 1980.05 2297.31"/><text class="cls-2" transform="translate(176.95 2470.66) rotate(72.08)">F</text><text class="cls-2" transform="matrix(0.52, 0.86, -0.86, 0.52, 336.17, 2856.16)">I</text><text class="cls-2" transform="translate(519.29 3117.34) rotate(45.65)">T</text><text class="cls-2" transform="translate(828.02 3388.22) rotate(32.76)"> </text><text class="cls-2" transform="translate(1090.61 3535.83) rotate(19.98)">A</text><text class="cls-2" transform="matrix(1, 0.07, -0.07, 1, 1519.18, 3655)">P</text><text class="cls-2" transform="matrix(0.98, -0.21, 0.21, 0.98, 1966.12, 3651.79)">P</text><text class="cls-2" transform="translate(2367.07 3537.32) rotate(-26.84)">A</text><text class="cls-2" transform="matrix(0.73, -0.68, 0.68, 0.73, 2748.57, 3305.76)">R</text><text class="cls-2" transform="translate(3059.57 2964.46) rotate(-59.34)">E</text><text class="cls-2" transform="translate(3254.49 2568.19) rotate(-74.53)">L</text><text class="cls-3" transform="matrix(0.34, -0.94, 0.94, 0.34, 426.26, 1729.07)">D</text><text class="cls-3" transform="translate(578.29 1371.16) rotate(-54.67)">E</text><text class="cls-3" transform="matrix(0.73, -0.68, 0.68, 0.73, 779.16, 1117.87)"> </text><text class="cls-3" transform="matrix(0.85, -0.52, 0.52, 0.85, 940.67, 975.01)">L</text><text class="cls-3" transform="translate(1230.79 812.1) rotate(-16.04)">A</text><text class="cls-3" transform="translate(1609.24 727.12) rotate(-3.11)"> </text><text class="cls-3" transform="translate(1824.31 720.37) rotate(9.26)">C</text><text class="cls-3" transform="translate(2174.41 792.31) rotate(24.62)">R</text><text class="cls-3" transform="translate(2502.19 957.11) rotate(41.34)">O</text><text class="cls-3" transform="translate(2796.72 1244.84) rotate(57.18)">S</text><text class="cls-3" transform="translate(2964.32 1531.02) rotate(71.29)">S</text><circle id="Innner_Circle"  class="cls-4" cx="1730.37" cy="2061.82" r="1210.86"/><circle id="Outer_Circle"  class="cls-4" cx="1730.37" cy="2061.82" r="1727.87"/><circle id="Circle_Bullet"  class="cls-1" cx="3200.81" cy="2058.33" r="43.06"/><circle id="Circle_Bullet-2" class="cls-1" cx="262.26" cy="2058.33" r="43.06"/><text class="cls-2" transform="translate(176.95 2470.66) rotate(72.08)">F</text><text class="cls-2" transform="matrix(0.52, 0.86, -0.86, 0.52, 336.17, 2856.16)">I</text><text class="cls-2" transform="translate(519.29 3117.34) rotate(45.65)">T</text><text class="cls-2" transform="translate(828.02 3388.22) rotate(32.76)"> </text><text class="cls-2" transform="translate(1090.61 3535.83) rotate(19.98)">A</text><text class="cls-2" transform="matrix(1, 0.07, -0.07, 1, 1519.18, 3655)">P</text><text class="cls-2" transform="matrix(0.98, -0.21, 0.21, 0.98, 1966.12, 3651.79)">P</text><text class="cls-2" transform="translate(2367.07 3537.32) rotate(-26.84)">A</text><text class="cls-2" transform="matrix(0.73, -0.68, 0.68, 0.73, 2748.57, 3305.76)">R</text><text class="cls-2" transform="translate(3059.57 2964.46) rotate(-59.34)">E</text><text class="cls-2" transform="translate(3254.49 2568.19) rotate(-74.53)">L</text></g></g></svg>